<svg id="Layer_1" data-name="Layer 1" xmlns="http://www.w3.org/2000/svg" viewBox="0 0 116.36 122.88"><title>cosmetics</title><path d="M85.62,74.85a6.32,6.32,0,0,1,1.11.38L84.87,57.44h0a1.14,1.14,0,0,1,1-1.24,1.12,1.12,0,0,1,1.23,1L89.18,77A7.06,7.06,0,0,1,91,81.72V93.24H109l4.4-51.79H80.16l1.75,19.4a23.15,23.15,0,0,1,3.14,5A1.28,1.28,0,0,1,85.61,67v7.87Zm-58.44,13c18.26,5.33,35,5,50.46,0v21c-15,5.92-31.52,6.78-50.46,0v-21ZM71.3,55.05A55.46,55.46,0,0,0,52,47.49c-.8,8.92-4.32,14.39-9.75,17.55C37.33,67.87,31,68.77,23.72,68.6a14.21,14.21,0,0,0,1.36.71c5.47,2.52,15.82,3.94,26.36,4.08s21.2-1,27.28-3.52a9.06,9.06,0,0,0,4.06-2.77c-2-4.72-6.38-8.82-11.48-12ZM83.05,76.89c.19-.78,0-5.43,0-6.49a16.32,16.32,0,0,1-3.34,1.84c-6.4,2.68-17.44,3.86-28.3,3.71S29.8,74.3,24,71.64a14.18,14.18,0,0,1-2.24-1.26v6.8c4.22,3.87,17,5.93,30,6s26.27-1.89,31.3-6v-.24Zm-63.85.42a4.34,4.34,0,0,0-2,1.13,4.2,4.2,0,0,0-1.24,3v31.52l.56.38c8.77,5.72,25.34,7.53,40.51,6.89,14.89-.63,28.27-3.53,31.38-7.34V81.72a4.51,4.51,0,0,0-1.33-3.19,4.59,4.59,0,0,0-1.47-1v.16a1.28,1.28,0,0,1-.49,1c-5.24,4.8-19.46,7.07-33.38,7S23.89,83.2,19.56,78.59v0a1.28,1.28,0,0,1-.34-.87h0v-.39Zm22.5-15a60,60,0,0,0-10.87,1.59,37.15,37.15,0,0,0-6.31,2.12c6.5.09,12.15-.75,16.4-3.23q.4-.23.78-.48ZM91,96.47v5c5.81.4,15.33.29,16.57-.87A4,4,0,0,0,108.62,98v0l.14-1.53H91Zm-.4,17.77,0,0c-3.36,4.46-17.68,7.83-33.41,8.49s-32.76-1.27-42-7.3c-.42-.28-.82-.56-1.22-.85a1.34,1.34,0,0,1-.3-.33H1.47A1.48,1.48,0,0,1,0,112.8V69.74a1.47,1.47,0,0,1,1.47-1.47H3.7V43.54a1.4,1.4,0,0,1,1.4-1.39H7.76V17.21c5,.79,9.64,3.49,13.85,9.5V42.15h2.16a1.39,1.39,0,0,1,1.39,1.39V63a42.48,42.48,0,0,1,5.05-1.58,63.14,63.14,0,0,1,14.46-1.75h.08c2.72-3.09,4.41-7.52,4.76-13.74a1.27,1.27,0,0,1,1.34-1.21l.17,0a46.47,46.47,0,0,1,6.43,1.36V29.64a.53.53,0,0,1,0-.13l-9.21-22a.94.94,0,0,1,.29-1.2c10.73-7.89,18-9.06,28.35,0a.94.94,0,0,1,.19,1.18L68.77,29.88h0V50.64c1.32.69,2.62,1.44,3.88,2.23a42.08,42.08,0,0,1,6.75,5.25L77.86,41a1.11,1.11,0,0,1-.24-.69,1.19,1.19,0,0,1,.13-.53l-.53-5.9a1.13,1.13,0,0,1,1-1.23h37a1.13,1.13,0,0,1,1.13,1.13.88.88,0,0,1,0,.16l-.52,6.11a1.09,1.09,0,0,1,0,.26,1.12,1.12,0,0,1-.09.44l-4.88,57.41a.22.22,0,0,1,0,.08,6.22,6.22,0,0,1-1.77,4,4.94,4.94,0,0,1-2,1.11v8.92a1.93,1.93,0,0,1-1.94,1.94H90.57Zm-71.37-46V67a1.29,1.29,0,0,1,.56-1.06,16,16,0,0,1,2.62-1.66V44.92H6.48V68.27H19.2ZM59.33,46.69a60.65,60.65,0,0,1,7.56,3V46.21H59.33v.48Zm0-2.36h7.56V31.15H59.33V44.33ZM84,46.55a1.13,1.13,0,1,1,2.23-.36l.66,4.2a1.13,1.13,0,0,1-2.23.36L84,46.55Zm26.23-11.62V39.2h3.36l.36-4.27ZM108,39.2V34.92h-3.85V39.2Zm-6.1,0V34.92H98.07V39.2Zm-6.09,0V34.92H92V39.2Zm-6.1,0V34.92H85.88V39.2Zm-6.1,0V34.92H79.57L80,39.2Z"/></svg>